<?xml version="1.0" encoding="utf-8"?>
<!-- Generator: Adobe Illustrator 24.0.1, SVG Export Plug-In . SVG Version: 6.00 Build 0)  -->
<svg version="1.1" id="Layer_1" xmlns="http://www.w3.org/2000/svg" xmlns:xlink="http://www.w3.org/1999/xlink" x="0px" y="0px"
	 viewBox="0 0 104.5 148.6" style="enable-background:new 0 0 104.5 148.6;" xml:space="preserve">
<path d="M104.5,82.3c0-5.8-5.7-10.4-12.6-10.4c-3.2,0-6.2,1-8.4,2.7c-3.1-2-6.7-3.1-10.6-3.1H46.6c0.2-0.9,0.3-1.8,0.3-2.7
	c0-2.4-0.7-4.6-2-6.5c1.3-1.9,2-4.1,2-6.5c0-3.2-1.3-6.2-3.6-8.4c2.4-3.4,3.8-7.4,3.8-11.6c0-4.3-1.4-8.3-3.8-11.6
	c0.5-2.3,0.8-4.7,0.8-7.2c0-8.2-2.9-17-9.3-17c-5.8,0-8.7,7.2-9.2,14.7c-0.5,0-1-0.1-1.6-0.1c-0.5,0-1,0-1.6,0.1
	C21.9,7.2,19,0,13.2,0C6.8,0,3.9,8.8,3.9,17c0,2.4,0.3,4.9,0.8,7.1c-2.4,3.3-3.8,7.3-3.8,11.6c0,4.8,1.8,9.4,5,13.1
	c-1.5,2-2.3,4.4-2.3,6.9c0,2.4,0.7,4.6,2,6.5c-1.3,1.9-2,4.1-2,6.5c0,1.7,0.4,3.3,1,4.7C1.8,75.7,0,79.1,0,82.8
	C0,85.5,0.9,88,2.5,90C0.9,92,0,94.5,0,97.2c0,4.2,2.3,8,5.8,10c0,7.8,2.4,15,6.3,19.3V141c0,4.2,3.4,7.5,7.5,7.5h1.7
	c4.2,0,7.5-3.4,7.5-7.5v-14.5c0.4-0.4,0.7-0.8,1.1-1.3c0.3,0.4,0.7,0.9,1.1,1.3V141c0,4.2,3.4,7.5,7.5,7.5h1.7
	c4.2,0,7.5-3.4,7.5-7.5v-14.5c2-2.1,3.6-5.1,4.7-8.5h0.3c1.1,3.4,2.7,6.4,4.7,8.5V141c0,4.2,3.4,7.5,7.5,7.5h1.7
	c4.2,0,7.5-3.4,7.5-7.5v-14.5c0.4-0.5,0.9-1,1.3-1.6c0.4,0.6,0.8,1.1,1.3,1.6V141c0,4.2,3.4,7.5,7.6,7.5h1.7c4.2,0,7.5-3.4,7.5-7.5
	v-14.5c3.9-4.3,6.3-11.5,6.3-19.4c0-5.7-1.2-10.9-3.3-15C101.1,90.5,104.5,86.8,104.5,82.3z M34.8,7.3c0.9,1.1,2.3,4.5,2.3,9.8
	c0,0.5,0,0.9,0,1.3c-1.4-0.9-2.9-1.6-4.5-2.2C32.7,11.4,33.9,8.3,34.8,7.3z M13.2,7.3c0.8,1,2.1,4.1,2.3,8.9
	c-1.6,0.6-3.1,1.3-4.5,2.2c0-0.4,0-0.8,0-1.3C10.9,11.8,12.3,8.4,13.2,7.3z M23,122.4l-1.2,1.1V141c0,0.3-0.2,0.5-0.5,0.5h-1.7
	c-0.3,0-0.5-0.2-0.5-0.5v-17.6l-1.2-1.1c-0.9-0.8-1.9-2.1-2.7-3.7c2.3,1.3,4.9,2.1,7.7,2.1h1.6C24,121.4,23.5,122,23,122.4z
	 M68.3,122.4l-1.2,1.1V141c0,0.3-0.2,0.5-0.5,0.5h-1.7c-0.3,0-0.5-0.2-0.5-0.5v-17.6l-1.2-1.1c-1.1-0.9-2.1-2.4-3-4.4h11.2
	C70.5,120,69.4,121.5,68.3,122.4z M87.6,122.4c-0.8,0.7-1.2,1.6-1.2,2.6v16c0,0.3-0.2,0.5-0.5,0.5h-1.7c-0.3,0-0.6-0.2-0.6-0.5v-16
	c0-1-0.4-2-1.2-2.6c-1.9-1.7-3.5-4.8-4.4-8.7c-0.4-1.6-1.8-2.7-3.4-2.7H49.7c-1.6,0-3.1,1.1-3.4,2.7c-0.9,3.8-2.5,7-4.4,8.7
	c-0.8,0.7-1.2,1.6-1.2,2.6v16c0,0.3-0.2,0.5-0.5,0.5h-1.7c-0.3,0-0.5-0.2-0.5-0.5v-16c0-1-0.4-2-1.2-2.6c-1.5-1.3-2.8-3.5-3.7-6.3
	c-0.5-1.4-1.8-2.4-3.3-2.4h-6.8c-2.2,0-4.4-0.9-6-2.5c-1.6-1.6-2.5-3.7-2.5-5.9c0-1.8-1.4-3.3-3.2-3.5C8.9,101.6,7,99.6,7,97.2
	c0-1.7,1-3.3,2.5-4.1c1.2-0.6,1.9-1.8,1.9-3.1c0-1.3-0.7-2.5-1.9-3.1C7.9,86.1,7,84.5,7,82.8c0-2.2,1.5-4.1,3.6-4.5
	c1.3-0.3,2.3-1.3,2.6-2.5c0.3-1.3-0.1-2.6-1.1-3.5c-1-0.9-1.6-2.1-1.6-3.5c0-1.5,0.7-2.8,1.9-3.7c0.9-0.7,1.4-1.7,1.4-2.8
	s-0.5-2.1-1.4-2.8c-1.2-0.9-1.9-2.2-1.9-3.7c0-1.6,0.8-3,2.2-3.9c1-0.6,1.6-1.6,1.6-2.8c0.1-1.1-0.4-2.2-1.3-2.9
	c-3.4-2.7-5.2-6.4-5.2-10.4c0-7.8,7.2-14.2,16.1-14.2c8.9,0,16.1,6.4,16.1,14.2c0,3.6-1.6,7.1-4.4,9.8c-0.9,0.8-1.3,2.1-1.1,3.3
	c0.2,1.2,1.1,2.2,2.3,2.6c1.8,0.7,3.1,2.4,3.1,4.4c0,1.5-0.7,2.8-1.9,3.7c-0.9,0.7-1.4,1.7-1.4,2.8s0.5,2.1,1.4,2.8
	c1.2,0.9,1.9,2.2,1.9,3.7c0,1.4-0.6,2.7-1.6,3.5c-1.1,0.9-1.5,2.5-1,3.9c0.5,1.4,1.8,2.3,3.3,2.3h32.3c6.2,0,11.4,4.4,12.5,10.4
	c0.2,1,0.8,1.8,1.6,2.3c2.8,1.8,5.8,7.5,5.8,15.8C92.8,114.6,90.2,120.2,87.6,122.4z M91.9,85.8L91.9,85.8c-0.8-2.3-1.8-4.4-3.2-6.2
	c0.9-0.4,1.9-0.6,3.2-0.6c3.3,0,5.6,1.8,5.6,3.4C97.5,84,95.2,85.8,91.9,85.8z"/>
<path d="M19.5,31c0,1.7-1.4,3-3,3s-3-1.4-3-3s1.4-3,3-3C18.1,28,19.5,29.3,19.5,31z"/>
<path d="M34.5,31c0,1.7-1.4,3-3,3c-1.7,0-3-1.4-3-3s1.4-3,3-3C33.2,28,34.5,29.3,34.5,31z"/>
<path d="M20,38.8c0,1.1,0.7,2,1.6,2.3c-0.3,1.1-1.2,1.9-2.4,1.9c-1.4,0-2.5,1.1-2.5,2.5s1.1,2.5,2.5,2.5c1.9,0,3.6-0.7,5-1.9
	c1.3,1.2,3.1,1.9,5,1.9c1.4,0,2.5-1.1,2.5-2.5s-1.1-2.5-2.5-2.5c-1.2,0-2.1-0.8-2.4-1.9c1-0.3,1.7-1.3,1.7-2.3
	c0-1.4-1.1-2.5-2.5-2.5h-3.4C21.2,36.3,20,37.5,20,38.8z"/>
</svg>
