<svg id="Layer_1" data-name="Layer 1" xmlns="http://www.w3.org/2000/svg" viewBox="0 0 16 16"><defs><style>.cls-1{fill:#1a1a1a;}</style></defs><title>favicon</title><path class="cls-1" d="M8.77,3.84v0h0l-.1.06h0l4.7,8.59h0l.1-.06h0Z"/><path class="cls-1" d="M7.7,3.89l-.1-.06h0L2.89,12.39v0h0l.1.06H3L7.71,3.92v0Z"/><path class="cls-1" d="M12.87,13.44a.08.08,0,0,1,0-.08v0H3.47v.16h9.4v0Z"/><path class="cls-1" d="M8.9,3.15H7.54V.92H8V2.71H8.9Z"/><path class="cls-1" d="M3,13.93a1.39,1.39,0,0,1-.07.46,1,1,0,0,1-.19.36.87.87,0,0,1-.32.25,1.23,1.23,0,0,1-.44.08A1.06,1.06,0,0,1,1.49,15a.93.93,0,0,1-.32-.24A1.17,1.17,0,0,1,1,14.38a1.63,1.63,0,0,1-.06-.45A1.73,1.73,0,0,1,1,13.46a.93.93,0,0,1,.19-.37.77.77,0,0,1,.32-.24,1,1,0,0,1,.45-.09,1,1,0,0,1,.44.09.87.87,0,0,1,.32.24,1,1,0,0,1,.19.37A1.45,1.45,0,0,1,3,13.93Zm-.48,0a1.23,1.23,0,0,0,0-.28.64.64,0,0,0-.1-.24.44.44,0,0,0-.17-.16.62.62,0,0,0-.25-.05.53.53,0,0,0-.26.06.49.49,0,0,0-.17.15.85.85,0,0,0-.09.24,1.2,1.2,0,0,0,0,.28,1.36,1.36,0,0,0,0,.29.79.79,0,0,0,.09.23.46.46,0,0,0,.17.14.53.53,0,0,0,.26.06.53.53,0,0,0,.26-.06.46.46,0,0,0,.17-.14.79.79,0,0,0,.09-.23A1.37,1.37,0,0,0,2.48,13.93Z"/><path class="cls-1" d="M15.08,13.53a.86.86,0,0,1,0,.28.56.56,0,0,1-.12.23.6.6,0,0,1-.22.16.79.79,0,0,1-.32.06H14V15h-.44V12.8h.86a.71.71,0,0,1,.31.06.51.51,0,0,1,.22.15.7.7,0,0,1,.13.24A.86.86,0,0,1,15.08,13.53Zm-.46,0a.33.33,0,0,0-.08-.22.29.29,0,0,0-.21-.08H14v.59h.38a.27.27,0,0,0,.2-.07A.29.29,0,0,0,14.62,13.53Z"/></svg>